<svg width="32" height="38" viewBox="0 0 32 38" fill="none" xmlns="http://www.w3.org/2000/svg">
<path d="M2.90719 0C0.779894 0 0 0.785696 0 2.90719V28.5357C0 28.7783 0.012766 29.0011 0.031335 29.2077C0.085881 29.6731 0.085881 30.1269 0.519929 30.634C0.561709 30.6944 0.998078 31.0147 0.998078 31.0147C1.23367 31.1296 1.39615 31.2143 1.66192 31.3222L14.5615 36.7258C15.2265 37.0287 15.512 37.1564 15.9948 37.1378H16.0006C16.4892 37.1564 16.7747 37.0299 17.4397 36.7258L30.3323 31.3222C30.605 31.2143 30.7605 31.1284 31.0019 31.0147C31.0019 31.0147 31.4383 30.6816 31.4801 30.634C31.9153 30.1269 31.9153 29.6731 31.9687 29.2077C31.9872 29.0023 32 28.7795 32 28.5427V2.90835C32 0.786857 31.2143 0.00116056 29.0928 0.00116056L2.90719 0ZM23.5744 4.8105H24.6247C26.3783 4.8105 27.2371 5.66351 27.2371 7.44148V10.3487H25.1098V7.55522C25.1098 6.98771 24.8498 6.72774 24.2986 6.72774H23.9365C23.3689 6.72774 23.109 6.98771 23.109 7.55522V16.5484C23.109 17.1159 23.3689 17.3758 23.9365 17.3758H24.3415C24.8846 17.3758 25.1446 17.1159 25.1446 16.5484V13.3325H27.2719V16.6517C27.2719 18.4215 26.4026 19.2931 24.6432 19.2931H23.5744C21.8092 19.2931 20.9434 18.4157 20.9434 16.6517V7.45657C20.9434 5.68672 21.808 4.8105 23.5744 4.8105ZM4.71418 4.93352H9.53164V6.90995H6.87745V10.9348H9.43532V12.9065H6.87745V17.1971H9.56878V19.1747H4.71418V4.93352ZM10.6191 4.93352H14.0172C15.7754 4.93352 16.6458 5.80974 16.6458 7.57959V11.3642C16.6458 13.134 15.7743 14.0056 14.0172 14.0056H12.7905V19.1735H10.6191V4.93352ZM17.6254 4.93352H19.7886V19.1747H17.6254V4.93352ZM12.7835 6.84844V12.0942H13.6783C14.2226 12.0942 14.4826 11.8295 14.4826 11.2597V7.68172C14.4826 7.11421 14.2226 6.84728 13.6783 6.84728L12.7835 6.84844ZM6.8171 22.5577H7.13742L7.21053 22.5705H7.32659L7.38694 22.5891H7.44729L7.50183 22.6065L7.56218 22.6192L7.60976 22.632L7.71769 22.6564L7.7792 22.6738L7.82098 22.6865L7.86857 22.7051L7.92892 22.7237L7.9707 22.7411L8.03221 22.7655L8.08675 22.7898L8.13433 22.8188L8.18888 22.8432L8.23066 22.8722L8.29217 22.9036L8.33975 22.9326L8.38734 22.957L8.43492 22.9929L8.48482 23.0243L8.5266 23.0602L8.67167 23.1705L8.63453 23.2181L8.59275 23.2599L8.55562 23.3028L8.51384 23.3504L8.48482 23.3922L8.44768 23.4351L8.4059 23.4769L8.36877 23.5245L8.33975 23.5662L8.29681 23.6161L8.26083 23.6579L8.21905 23.7055L8.18192 23.7485L8.1529 23.796L8.10996 23.8378L8.07399 23.8877L8.03221 23.9295L7.99507 23.9713L7.95329 23.9423L7.9057 23.8993L7.8558 23.8703L7.76644 23.81L7.71189 23.7786L7.66199 23.7496L7.60744 23.7183L7.56566 23.6939L7.51808 23.6707L7.42059 23.6336L7.36024 23.6231L7.31266 23.6103L7.25811 23.5976L7.19661 23.5848L7.13626 23.579H7.07591L7.00511 23.5662H6.88906L6.82871 23.572H6.76836L6.70801 23.5906L6.66043 23.6034L6.60588 23.622L6.55134 23.6324L6.50143 23.6568L6.44108 23.6811L6.35752 23.7415L6.30762 23.7705L6.26584 23.8076L6.22406 23.8367L6.18112 23.8738L6.15211 23.9156L6.1022 23.9574L6.04185 24.0421L6.01284 24.0897L5.98847 24.1442L5.95945 24.1871L5.92812 24.2417L5.90955 24.2962L5.88634 24.3438L5.86777 24.4042L5.86197 24.4645L5.84456 24.5202L5.83179 24.5806V24.6409L5.82599 24.7013V24.8405L5.83179 24.9009V24.9485L5.83759 25.0088L5.84804 25.0634L5.86661 25.1109L5.87241 25.1725L5.89098 25.22L5.90839 25.2618L5.93276 25.3222L5.9641 25.3825L5.98731 25.4255L6.04766 25.5218L6.08479 25.5694L6.11381 25.6123L6.16371 25.6483L6.19272 25.6901L6.2345 25.7272L6.33199 25.8003L6.37377 25.8235L6.42135 25.8549L6.47706 25.8792L6.53741 25.9024L6.57919 25.9268L6.69989 25.9628L6.75443 25.9686L6.81478 25.9872L6.87513 25.993H7.1351L7.20821 25.9872H7.26276L7.32427 25.9628L7.38462 25.957L7.44496 25.9396L7.49255 25.9268L7.54709 25.9024L7.59468 25.8792L7.64922 25.8549L7.68636 25.8305L7.73394 25.8015V25.263H6.88093V24.3995H8.80862V26.3342L8.76684 26.3632L8.72506 26.3992L8.68212 26.4305L8.63453 26.4665L8.58695 26.4908L8.54517 26.528L8.44768 26.5883L8.38734 26.6173L8.29101 26.6777L8.2295 26.7021L8.18192 26.7253L8.12737 26.7496L8.00667 26.7972L7.95909 26.8216L7.84884 26.8576L7.79429 26.8703L7.73975 26.8889L7.6794 26.9075L7.63181 26.9179L7.45077 26.9551L7.39506 26.9609L7.27436 26.9736L7.20821 26.9794L7.14786 26.9841L7.08171 26.9899H6.77997L6.71962 26.9794H6.65927L6.59892 26.9667H6.54437L6.48402 26.9481L6.30762 26.9121L6.26004 26.8936L6.20549 26.8878L6.14514 26.8634L6.03489 26.8274L5.92696 26.7798L5.86661 26.7555L5.82483 26.7311L5.76448 26.7079L5.72154 26.6707L5.66119 26.6475L5.62521 26.6162L5.57763 26.5872L5.48014 26.5141L5.43256 26.4827L5.39542 26.4467L5.34784 26.4096L5.26892 26.3318L5.22714 26.2947L5.19117 26.2529L5.14822 26.21L5.11921 26.1624L5.08207 26.1264L5.05306 26.0765L5.01592 26.0289L4.98691 25.9872L4.95557 25.9396L4.92656 25.8839L4.90219 25.8363L4.87782 25.7817L4.8546 25.7342L4.80702 25.6239L4.78845 25.5821L4.76408 25.5276L4.75131 25.473L4.74087 25.4255L4.7281 25.3651L4.70953 25.3094L4.69677 25.2491L4.69097 25.2015L4.68052 25.1411L4.66775 25.0332L4.65499 24.9125V24.5922L4.66775 24.5307V24.4703L4.68632 24.41V24.3496L4.70373 24.2951L4.7223 24.2347L4.74667 24.1268L4.76408 24.0664L4.78265 24.0119L4.85576 23.8483L4.87898 23.8007L4.90335 23.7461L4.93468 23.6904L4.95789 23.6428L4.98923 23.6011L5.04958 23.5036L5.08555 23.456L5.12269 23.4142L5.15171 23.3666L5.23062 23.2877L5.2666 23.2448L5.30954 23.203L5.34552 23.1612L5.39542 23.1241L5.47898 23.051L5.52657 23.015L5.57647 22.9836L5.61825 22.9477L5.66583 22.9163L5.71574 22.8931L5.77028 22.8618L5.83063 22.8328L5.87241 22.8014L5.93276 22.7782L5.98731 22.7539L6.04185 22.7248L6.09176 22.7121L6.15211 22.6935L6.19969 22.6691L6.25423 22.6587L6.30878 22.6401L6.36913 22.6274L6.41903 22.6088L6.47938 22.596H6.53973L6.59428 22.5786H6.65463L6.71497 22.5658H6.76952L6.8171 22.5577ZM25.3686 22.5705H25.6889L25.762 22.5833H25.8769L25.9373 22.6007H26.0034L26.0638 22.6192L26.1717 22.6436L26.232 22.6564L26.2866 22.6668L26.3481 22.6854L26.4026 22.704L26.4502 22.7167L26.5048 22.7341L26.5651 22.7527L26.6127 22.7771L26.673 22.8003L26.7288 22.8246L26.7833 22.856L26.8251 22.8792L26.8796 22.9105L26.9342 22.9337L26.9841 22.9651L27.0386 23.0011L27.0804 23.0324L27.1779 23.1055L27.2255 23.1345L27.1883 23.1821L27.1593 23.232L27.1233 23.2738L27.0862 23.3214L27.0572 23.3759L27.0259 23.4258L26.9899 23.4676L26.9527 23.5152L26.9237 23.5651L26.8866 23.6127L26.8576 23.6544L26.8204 23.702L26.7914 23.7577L26.7543 23.8053L26.7183 23.8471L26.6812 23.8947L26.6522 23.9446L26.6046 23.9074L26.5489 23.8784L26.5071 23.8471L26.4595 23.8181L26.405 23.7937L26.3551 23.7624L26.3005 23.7392L26.2587 23.7148L26.1984 23.6916L26.1554 23.6672L26.1079 23.6486L25.9999 23.6127L25.8792 23.5755L25.6982 23.5396L25.6378 23.5337L25.5276 23.521H25.4011L25.3349 23.5337L25.2746 23.5465L25.22 23.5593L25.1725 23.5825L25.1295 23.6069L25.0819 23.6486L25.0459 23.7032L25.0216 23.7589V23.9028L25.0529 23.969L25.0761 24.0061L25.1133 24.0421L25.1736 24.0734L25.2212 24.1024L25.2757 24.1268L25.3361 24.15L25.415 24.1686L25.4568 24.1871L25.5067 24.1999L25.567 24.2127L25.6146 24.2301L25.6692 24.2428L25.7353 24.2614L25.7957 24.28L25.8618 24.2974L25.928 24.3102L25.9825 24.3287L26.0487 24.3461L26.109 24.3589L26.1636 24.3717L26.3458 24.4262L26.3934 24.4448L26.4537 24.4634L26.5083 24.4866L26.5686 24.5179L26.6893 24.5655L26.7438 24.5968L26.8413 24.6572L26.9307 24.7233L26.9864 24.7593L27.0282 24.8011L27.07 24.851L27.1129 24.8928L27.1419 24.9345L27.1849 24.9949L27.2139 25.0378L27.2382 25.0982L27.2615 25.1342L27.28 25.1945L27.2986 25.2444L27.3114 25.299L27.3346 25.4197L27.3404 25.48L27.3462 25.5345V25.6796L27.3404 25.7458L27.3276 25.8665L27.3148 25.9268L27.2974 25.9814L27.2847 26.0417L27.2661 26.1021L27.2487 26.1566L27.2243 26.1995L27.1999 26.2541L27.1709 26.3017L27.1338 26.3446L27.0734 26.4409L27.0003 26.5257L26.9585 26.5547L26.911 26.5976L26.8738 26.6336L26.8262 26.6696L26.7787 26.6939L26.7311 26.7311L26.6754 26.7601L26.5674 26.8146L26.5071 26.839L26.4525 26.8622L26.3922 26.8808L26.3376 26.8994L26.2877 26.9121L26.167 26.9353L26.1253 26.9481L26.0649 26.9609H26.0046L25.95 26.9736H25.8897L25.8293 26.9864H25.3988L25.2177 26.9678L25.1574 26.9551L25.1028 26.9493L24.9821 26.9261L24.916 26.9133L24.8614 26.9005L24.8011 26.882L24.7396 26.8692L24.685 26.8518L24.6247 26.8332L24.5643 26.8088L24.5167 26.7914L24.4564 26.7729L24.396 26.7485L24.3531 26.7253L24.2927 26.7067L24.2452 26.6754L24.1848 26.6522L24.1372 26.6208L24.0943 26.5918L24.0339 26.5605L23.9922 26.5373L23.9446 26.5001L23.897 26.4711L23.8471 26.434L23.8053 26.398L23.7577 26.3609L23.7148 26.3318L23.6672 26.2889L23.7043 26.2413L23.7461 26.1995L23.7821 26.1566L23.825 26.109L23.8541 26.0672L23.8912 26.0197L23.933 25.9767L23.969 25.9349L24.0119 25.8874L24.0409 25.8444L24.0839 25.8026L24.1198 25.7551L24.157 25.7121L24.1987 25.6645L24.2278 25.6227L24.2707 25.5798L24.3125 25.5322L24.3543 25.5694L24.41 25.6053L24.4517 25.6413L24.5121 25.6727L24.5539 25.704L24.6084 25.74L24.6583 25.7713L24.7129 25.7945L24.7547 25.8258L24.8092 25.8433L24.8695 25.8676L24.9195 25.892L24.974 25.9094L25.0216 25.9338L25.0819 25.9523L25.1365 25.9698L25.1968 25.9883L25.2572 25.9941L25.3129 26.0127L25.3732 26.0185H25.4394L25.4939 26.0359H25.82L25.8746 26.0255L25.9349 26.0127L25.9767 26.0069L26.0266 25.9883L26.0684 25.9651L26.1229 25.928L26.1543 25.8862L26.1775 25.8386L26.1961 25.7829V25.6436L26.1717 25.5891L26.1427 25.5415L26.1055 25.5055L26.051 25.4684L26.0092 25.451L25.9547 25.4266L25.8943 25.4022L25.8282 25.3732L25.7852 25.3605L25.7376 25.3477L25.6773 25.3291L25.6355 25.3187L25.5752 25.3001L25.5148 25.2943L25.4533 25.2699L25.393 25.2641L25.3268 25.2467L25.2723 25.234L25.2119 25.2154L25.1516 25.2026L25.0912 25.1852L25.0367 25.1667L24.9763 25.1539L24.9287 25.1353L24.8185 25.0993L24.7581 25.075L24.6978 25.0576L24.5771 25.0077L24.5225 24.9786L24.4622 24.9473L24.4204 24.9183L24.3647 24.887L24.3229 24.8579L24.2684 24.8266L24.1895 24.7477L24.1477 24.7117L24.0746 24.627L24.0432 24.5852L24.02 24.5434L23.9829 24.4877L23.9655 24.4459L23.9098 24.3009L23.8993 24.2405L23.8866 24.186V24.1314L23.8738 24.0711V23.8239L23.8866 23.7032L23.8993 23.6533L23.9098 23.5987L23.9283 23.5512L23.9411 23.4908L23.9655 23.449L23.9887 23.3875L24.0131 23.3399L24.0363 23.2796L24.0676 23.2378L24.1094 23.1902L24.1407 23.1403L24.1883 23.0985L24.2243 23.0568L24.2614 23.0069L24.316 22.9651L24.3531 22.9337L24.4007 22.8978L24.497 22.8374L24.5516 22.8061L24.6618 22.7515L24.7094 22.7341L24.7639 22.7156L24.8243 22.6912L24.8846 22.6738L24.9276 22.661L24.9821 22.6482L25.0297 22.6355L25.0842 22.6227L25.1446 22.6099L25.2653 22.5995L25.321 22.5937L25.3686 22.5705ZM11.0729 22.6123H12.1673L12.2172 22.7225L12.2404 22.7701L12.2589 22.8305L12.2833 22.885L12.3007 22.9326L12.3321 22.9871L12.368 23.0974L12.3994 23.1519L12.447 23.2599L12.4597 23.3074L12.5561 23.5256L12.5746 23.5802L12.599 23.6301L12.628 23.6846L12.6408 23.7392L12.6721 23.7995L12.6826 23.8541L12.7383 23.962L12.7615 24.0049L12.7858 24.0653L12.8044 24.1256L12.8218 24.1674L12.8532 24.2278L12.8717 24.2777L12.8949 24.338L12.9135 24.3798L12.9379 24.4401L12.9924 24.5481L13.0098 24.6026L13.0226 24.6583L13.047 24.7129L13.076 24.7605L13.1004 24.8208L13.1247 24.8754L13.1421 24.9229L13.192 25.0332L13.2094 25.0877L13.2338 25.1423L13.2524 25.1968L13.2756 25.2444L13.3069 25.3001L13.3301 25.3547L13.3545 25.4022L13.3673 25.4626L13.4149 25.5705L13.4392 25.6204L13.4566 25.675L13.5065 25.7829L13.5356 25.8433L13.5483 25.8908L13.5797 25.9523L13.5901 25.9941L13.6145 26.0545L13.6458 26.1148L13.669 26.1566L13.6876 26.217L13.712 26.2669L13.7294 26.3272L13.7607 26.369L13.7967 26.4897L13.8211 26.5326L13.8443 26.593L13.8756 26.6406L13.9 26.7009L13.9104 26.7555L13.929 26.803L13.9534 26.8576L13.9824 26.9075H12.7742L12.7452 26.8576L12.7267 26.803L12.7023 26.7485L12.6791 26.6881L12.6663 26.6406L12.6164 26.5326L12.599 26.4827L12.5514 26.3748L12.5328 26.3272L12.5085 26.2669L12.4725 26.1566L12.4481 26.109H10.7676L10.7444 26.1636L10.7259 26.2135L10.7015 26.2738L10.6783 26.3284L10.6655 26.3759L10.6411 26.4363L10.6179 26.4839L10.5994 26.5384L10.575 26.5883L10.5518 26.6487L10.5332 26.6905L10.5088 26.7508L10.4914 26.8112L10.4671 26.8541L10.4485 26.9144H9.25195L9.26936 26.8587L9.31926 26.7508L9.33667 26.6905L9.35524 26.6429L9.38657 26.5883L9.40978 26.5338L9.43416 26.4839L9.44692 26.4293L9.47013 26.369L9.50147 26.3214L9.52468 26.2669L9.56182 26.1566L9.61636 26.0487L9.63493 25.9941L9.65814 25.9465L9.67671 25.8908L9.74983 25.7284L9.7742 25.668L9.79161 25.6204L9.81018 25.5659L9.84151 25.516L9.86472 25.4556L9.88329 25.4011L9.90186 25.3535L9.92507 25.2932L9.95641 25.2502L9.97498 25.1899L9.99819 25.1423L10.0168 25.0877L10.0411 25.0274L10.0701 24.9798L10.0887 24.9195L10.1119 24.8765L10.1305 24.8162L10.1549 24.7558L10.1781 24.714L10.2024 24.6537L10.221 24.6038L10.2442 24.5434L10.2628 24.5017L10.2941 24.4413L10.3173 24.381L10.3417 24.3334L10.3545 24.2788L10.3777 24.2231L10.409 24.1686L10.4322 24.121L10.445 24.0606L10.4694 24.0061L10.4937 23.9562L10.5413 23.8483L10.5587 23.8007L10.6086 23.68L10.6319 23.637L10.6562 23.5767L10.6748 23.5291L10.6922 23.4688L10.7166 23.4142L10.7479 23.3666L10.7711 23.3063L10.7897 23.2633L10.8083 23.203L10.8315 23.1554L10.8628 23.1009L10.8814 23.0405L10.8988 22.9906L10.9231 22.9303L10.9464 22.8885L10.9777 22.8281L10.9963 22.7678L11.0137 22.726L11.038 22.6657L11.0729 22.6123ZM14.471 22.6436H15.6675L15.7046 22.6912L15.765 22.7887L15.794 22.8432L15.8253 22.885L15.8544 22.9395L15.8857 22.9871L15.9147 23.0428L15.946 23.0904L15.975 23.1322L16.0064 23.1867L16.0354 23.2366L16.0783 23.2842L16.0957 23.3318L16.1329 23.3864L16.1619 23.4363L16.199 23.478L16.2234 23.5326L16.2524 23.5802L16.2896 23.6301L16.307 23.6777L16.3499 23.7322L16.4393 23.8773L16.4636 23.9249L16.4996 23.9724L16.531 24.02L16.56 24.0757L16.6517 24.2196L16.6807 24.2753L16.712 24.3229L16.748 24.2753L16.7723 24.2138L16.8083 24.1721L16.8397 24.1175L16.8687 24.0757L16.893 24.0154L16.9348 23.9724L16.9662 23.9179L16.9905 23.8761L17.0195 23.8262L17.0567 23.7717L17.0857 23.7299L17.117 23.6695L17.146 23.6278L17.1832 23.572L17.2064 23.5303L17.2377 23.4699L17.2667 23.4339L17.2981 23.384L17.3341 23.3237L17.3654 23.2819L17.3886 23.2274L17.4257 23.1844L17.4548 23.1241L17.4861 23.0881L17.5221 23.0405L17.5534 22.9802L17.5824 22.9372L17.6138 22.8827L17.6428 22.8409L17.6741 22.7805L17.7101 22.7376L17.7345 22.6831L17.7658 22.6413H18.9809V26.9574H17.8435V24.4181L17.8145 24.461L17.7774 24.5214L17.7484 24.5574L17.7112 24.6049L17.688 24.6653L17.6509 24.7082L17.6219 24.75L17.5847 24.8104L17.5244 24.8951L17.4884 24.9427L17.4571 25.003L17.4211 25.046L17.3898 25.0877L17.3666 25.1481L17.3294 25.1899L17.3004 25.2328L17.2633 25.2932L17.2343 25.3349L17.1971 25.3825L17.1681 25.4371L17.1437 25.48L17.1078 25.5276L17.0764 25.5821L17.0404 25.6239L17.0033 25.6738L16.9801 25.7214L16.9488 25.7759L16.9128 25.8189L16.8756 25.8665L16.8524 25.9268L16.8095 25.9628L16.7863 26.0104L16.7491 26.0719L16.7201 26.1137H16.6958L16.6598 26.0591L16.6284 26.0092L16.5994 25.9547L16.5681 25.9129L16.5321 25.8583L16.5008 25.8108L16.4648 25.7609L16.4335 25.7133L16.4045 25.6587L16.3731 25.6169L16.3313 25.5612L16.307 25.5137L16.271 25.4591L16.2397 25.4173L16.2106 25.3628L16.1735 25.3129L16.1445 25.2525L16.1074 25.2108L16.0783 25.1562L16.047 25.1063L16.018 25.0518L15.9809 25.01L15.9518 24.9554L15.9147 24.9078L15.8915 24.8579L15.8544 24.8104L15.8253 24.7558L15.7882 24.714L15.7592 24.6583L15.722 24.6107L15.6988 24.5562L15.6559 24.5144L15.6327 24.4587L15.5955 24.4111V26.9562H14.4779V22.6819L14.471 22.6436ZM19.8374 22.6436H23.2413V23.6173H20.9678V24.3125H23.0103V25.2316H20.9678V25.9686H23.2703V26.9481H19.8432V22.6807L19.8374 22.6436ZM11.6044 23.9666L11.5858 24.0212L11.5684 24.0711L11.544 24.1314L11.5197 24.186L11.5023 24.2405L11.4524 24.3485L11.4292 24.4088L11.4106 24.4587L11.392 24.5191L11.3688 24.5608L11.3502 24.6212L11.3259 24.6815L11.3027 24.7245L11.2841 24.7848L11.2609 24.8324L11.2423 24.8928L11.211 24.9473L11.1982 24.9949L11.175 25.0552L11.1506 25.1109L11.132 25.1585L11.1088 25.2189H12.1058L12.0825 25.1585L12.064 25.104L12.0164 24.9937L11.9978 24.9392L11.9735 24.8916L11.956 24.8313L11.9317 24.7767L11.9131 24.7222L11.8899 24.6723L11.8713 24.6177L11.847 24.5574L11.8295 24.5098L11.7796 24.4018L11.7692 24.3461L11.7448 24.2916L11.7205 24.2312L11.703 24.1895L11.6531 24.0688L11.6357 24.0142L11.6044 23.9666ZM9.82875 32.0487H22.2246L15.8973 34.1343L9.82875 32.0487Z" fill="white"/>
</svg>
